<svg id="Group_2291" data-name="Group 2291" xmlns="http://www.w3.org/2000/svg" xmlns:xlink="http://www.w3.org/1999/xlink" viewBox="0 0 45.914 45.964">
  <defs>
    <linearGradient id="linear-gradient" x2="0.864" y2="0.929" gradientUnits="objectBoundingBox">
      <stop offset="0" stop-color="#dff461"/>
      <stop offset="1" stop-color="#42e688"/>
    </linearGradient>
  </defs>
  <path id="Path_4077" data-name="Path 4077" d="M46.886,15.691H1.028A.518.518,0,0,0,1,15.871V43.392A4.58,4.58,0,0,0,5.571,47.97H42.337a4.581,4.581,0,0,0,4.577-4.577V15.871A.516.516,0,0,0,46.886,15.691Zm-35.006,27a.7.7,0,0,1-.7.7H7.261a.7.7,0,0,1-.7-.7V38.766a.693.693,0,0,1,.7-.7h3.924a.693.693,0,0,1,.7.7v3.924Zm0-9.155a.7.7,0,0,1-.7.7H7.261a.7.7,0,0,1-.7-.7V29.611a.7.7,0,0,1,.7-.7h3.924a.7.7,0,0,1,.7.7v3.924ZM21.7,42.689a.7.7,0,0,1-.7.7H17.084a.7.7,0,0,1-.7-.7V38.766a.693.693,0,0,1,.7-.7h3.924a.693.693,0,0,1,.7.7v3.924Zm0-9.155a.7.7,0,0,1-.7.7H17.084a.7.7,0,0,1-.7-.7V29.611a.7.7,0,0,1,.7-.7h3.924a.7.7,0,0,1,.7.7v3.924Zm9.823,9.155a.7.7,0,0,1-.7.7H26.907a.693.693,0,0,1-.7-.7V38.766a.689.689,0,0,1,.7-.7H30.83a.693.693,0,0,1,.7.7Zm0-9.155a.7.7,0,0,1-.7.7H26.907a.693.693,0,0,1-.7-.7V29.611a.693.693,0,0,1,.7-.7H30.83a.7.7,0,0,1,.7.7Zm0-9.155a.7.7,0,0,1-.7.7H26.907a.693.693,0,0,1-.7-.7V20.456a.693.693,0,0,1,.7-.7H30.83a.7.7,0,0,1,.7.7Zm9.823,18.31a.7.7,0,0,1-.7.7H36.73a.693.693,0,0,1-.7-.7V38.766a.689.689,0,0,1,.7-.7h3.924a.693.693,0,0,1,.7.7Zm0-9.155a.7.7,0,0,1-.7.7H36.73a.693.693,0,0,1-.7-.7V29.611a.693.693,0,0,1,.7-.7h3.924a.7.7,0,0,1,.7.7Zm0-9.155a.7.7,0,0,1-.7.7H36.73a.693.693,0,0,1-.7-.7V20.456a.693.693,0,0,1,.7-.7h3.924a.7.7,0,0,1,.7.7Zm.988-19.993H38.065v4.39a2.717,2.717,0,1,1-4.807,1.739,2.7,2.7,0,0,1,.633-1.739V4.386H14.023v4.39a2.713,2.713,0,1,1-4.174,0V4.386H5.571A4.58,4.58,0,0,0,1,8.963V14.3H46.914V8.963A4.581,4.581,0,0,0,42.337,4.386ZM21.959,11.207H18.738a.7.7,0,0,1,0-1.391h3.221a.7.7,0,0,1,0,1.391Zm7.214,0H25.288a.7.7,0,0,1,0-1.391h3.885a.7.7,0,0,1,0,1.391Z" transform="translate(-1 -2.005)" fill="url(#linear-gradient)"/>
  <path id="Path_4078" data-name="Path 4078" d="M16.416,10.166a.7.7,0,0,0,.7-.7V1.66a.7.7,0,0,0-1.391,0V9.47A.7.7,0,0,0,16.416,10.166Zm24.039,0a.7.7,0,0,0,.7-.7V1.66a.7.7,0,0,0-1.391,0V9.47A.7.7,0,0,0,40.455,10.166Z" transform="translate(-5.48 -0.964)" fill="url(#linear-gradient)"/>
</svg>
