<svg xmlns="http://www.w3.org/2000/svg" xmlns:xlink="http://www.w3.org/1999/xlink" width="33.346" height="44.754" viewBox="0 0 33.346 44.754">
  <defs>
    <linearGradient id="linear-gradient" x1="0.5" x2="0.5" y2="1" gradientUnits="objectBoundingBox">
      <stop offset="0" stop-color="#9c56fe"/>
      <stop offset="1" stop-color="#58c8f2"/>
    </linearGradient>
  </defs>
  <path id="Union_4" data-name="Union 4" d="M3.583,31.714a13,13,0,0,1,3.961-9.35L.083,1.82A1.355,1.355,0,0,1,1.356,0H11.827A1.354,1.354,0,0,1,13.1.9l3.571,9.833,1.877,5.165,1.143,3.147a12.93,12.93,0,0,1,3.127,1.2L28.794,3.792a.2.2,0,0,0-.186-.264h-5.43a.2.2,0,0,0-.185.13l-3.7,10.186L17.94,10.12l-.524-1.442L20.244.894A1.36,1.36,0,0,1,21.519,0h10.47a1.356,1.356,0,0,1,1.275,1.818L25.775,22.434a13.037,13.037,0,1,1-22.192,9.28Zm3.527,0A9.513,9.513,0,1,0,16.623,22.2,9.524,9.524,0,0,0,7.11,31.709ZM4.551,3.793,10.511,20.2a12.942,12.942,0,0,1,5.3-1.5L14.8,15.894,10.353,3.659a.2.2,0,0,0-.185-.129H4.736A.2.2,0,0,0,4.551,3.793ZM18.912,35.6l-1.855-.975a.628.628,0,0,0-.584,0l-1.855.975a.627.627,0,0,1-.91-.662l.355-2.065a.627.627,0,0,0-.181-.556l-1.5-1.463a.628.628,0,0,1,.347-1.071l2.074-.3a.627.627,0,0,0,.472-.343l.928-1.879a.627.627,0,0,1,1.126,0l.928,1.879a.628.628,0,0,0,.473.343l2.074.3a.627.627,0,0,1,.348,1.071l-1.5,1.463a.629.629,0,0,0-.181.556l.355,2.065a.626.626,0,0,1-.911.662Z" fill="url(#linear-gradient)"/>
</svg>
