<svg xmlns="http://www.w3.org/2000/svg" style="display: none;">
  <symbol id="blog" xmlns="http://www.w3.org/2000/svg" viewBox="0 0 30.345 30.345">
    <path id="Path_86" data-name="Path 86" d="M23.6,30.345H6.743A6.75,6.75,0,0,1,0,23.6V6.743A6.75,6.75,0,0,1,6.743,0H23.6a6.75,6.75,0,0,1,6.743,6.743V23.6A6.75,6.75,0,0,1,23.6,30.345ZM6.743,3.372A3.375,3.375,0,0,0,3.372,6.743V23.6a3.375,3.375,0,0,0,3.372,3.372H23.6A3.376,3.376,0,0,0,26.974,23.6V6.743A3.376,3.376,0,0,0,23.6,3.372Z" fill="#fff" />
    <path id="Path_87" data-name="Path 87" d="M16.8,8.372H6.686A1.686,1.686,0,0,1,6.686,5H16.8a1.686,1.686,0,1,1,0,3.372Z" transform="translate(3.429 3.429)" fill="#fff" />
    <path id="Path_88" data-name="Path 88" d="M19.173,11.372H5.686A1.686,1.686,0,1,1,5.686,8H19.173a1.686,1.686,0,0,1,0,3.372Z" transform="translate(2.743 5.487)" fill="#fff" />
    <path id="Path_89" data-name="Path 89" d="M16.8,14.372H6.686a1.686,1.686,0,1,1,0-3.372H16.8a1.686,1.686,0,1,1,0,3.372Z" transform="translate(3.429 7.544)" fill="#fff" />
  </symbol>
  <symbol id="id" data-name="Group 113" xmlns="http://www.w3.org/2000/svg" viewBox="0 0 32.781 30.475">
    <path id="Path_92" data-name="Path 92" d="M28.683,0H4.1A4.1,4.1,0,0,0,0,4.1V26.379a4.1,4.1,0,0,0,4.1,4.1H28.683a4.1,4.1,0,0,0,4.1-4.1V4.1A4.1,4.1,0,0,0,28.683,0ZM12.549,26.89A2.949,2.949,0,0,0,9.6,23.945H3.585V4.1A.52.52,0,0,1,4.1,3.585H28.683A.52.52,0,0,1,29.2,4.1V23.945H22.665a2.949,2.949,0,0,0-2.945,2.945Z" fill="#fff" />
    <path id="Path_93" data-name="Path 93" d="M7.793,7.585h7.171a1.793,1.793,0,0,0,0-3.585H7.793a1.793,1.793,0,1,0,0,3.585Z" transform="translate(4.756 3.171)" fill="#fff" />
    <path id="Path_94" data-name="Path 94" d="M17.549,10.585a1.793,1.793,0,0,0,0-3.585H6.793a1.793,1.793,0,0,0,0,3.585Z" transform="translate(3.963 5.549)" fill="#fff" />
    <path id="Path_95" data-name="Path 95" d="M16.756,11.793A1.792,1.792,0,0,0,14.963,10H7.793a1.793,1.793,0,1,0,0,3.585h7.171A1.792,1.792,0,0,0,16.756,11.793Z" transform="translate(4.756 7.927)" fill="#fff" />
  </symbol>
  <symbol id="link" data-name="Group 2294" xmlns="http://www.w3.org/2000/svg" viewBox="0 0 37 37">
    <path id="Path_4082" data-name="Path 4082" d="M29.6,168.841a10.979,10.979,0,0,1,.026,15.507l-.026.027-4.856,4.856A10.984,10.984,0,0,1,9.213,173.7l2.681-2.681a1.155,1.155,0,0,1,1.972.766,13.315,13.315,0,0,0,.7,3.81,1.163,1.163,0,0,1-.273,1.2l-.946.946a5.2,5.2,0,1,0,7.311,7.405l4.856-4.856a5.2,5.2,0,0,0,0-7.359,5.414,5.414,0,0,0-.747-.619,1.159,1.159,0,0,1-.5-.911,2.878,2.878,0,0,1,.845-2.154l1.522-1.522a1.161,1.161,0,0,1,1.488-.125,11.023,11.023,0,0,1,1.483,1.243Z" transform="translate(-6 -155.444)" fill="#fff" />
    <path id="Path_4083" data-name="Path 4083" d="M167.149,9.212a11,11,0,0,0-15.534,0l-4.856,4.856-.026.027a10.987,10.987,0,0,0,1.509,16.75,1.161,1.161,0,0,0,1.488-.125l1.522-1.522a2.878,2.878,0,0,0,.845-2.154,1.159,1.159,0,0,0-.5-.911,5.418,5.418,0,0,1-.747-.619,5.2,5.2,0,0,1,0-7.359L155.7,13.3a5.2,5.2,0,1,1,7.311,7.405l-.946.946a1.163,1.163,0,0,0-.273,1.2,13.316,13.316,0,0,1,.7,3.81,1.155,1.155,0,0,0,1.972.766l2.681-2.681a11,11,0,0,0,0-15.534Z" transform="translate(-133.361 -6)" fill="#fff" />
  </symbol>
  <symbol id="message" xmlns="http://www.w3.org/2000/svg" viewBox="0 0 30.125 30.125">
    <path id="Path_70" data-name="Path 70" d="M9.038,30.125a1.506,1.506,0,0,1-1.506-1.506V24.1H6.025A6.031,6.031,0,0,1,0,18.075V6.025A6.031,6.031,0,0,1,6.025,0H24.1a6.031,6.031,0,0,1,6.025,6.025v12.05A6.031,6.031,0,0,1,24.1,24.1H19.982l-10.2,5.826A1.51,1.51,0,0,1,9.038,30.125ZM6.025,3.013A3.016,3.016,0,0,0,3.013,6.025v12.05a3.016,3.016,0,0,0,3.013,3.013H9.038a1.506,1.506,0,0,1,1.506,1.506v3.43l8.29-4.737a1.5,1.5,0,0,1,.747-.2H24.1a3.017,3.017,0,0,0,3.012-3.013V6.025A3.017,3.017,0,0,0,24.1,3.013Z" fill="#fff" />
    <circle id="Ellipse_7" data-name="Ellipse 7" cx="1.506" cy="1.506" r="1.506" transform="translate(9.037 10.544)" fill="#fff" />
    <circle id="Ellipse_8" data-name="Ellipse 8" cx="1.506" cy="1.506" r="1.506" transform="translate(13.556 10.544)" fill="#fff" />
    <circle id="Ellipse_9" data-name="Ellipse 9" cx="1.506" cy="1.506" r="1.506" transform="translate(18.075 10.544)" fill="#fff" />
  </symbol>
  <symbol id="message2" xmlns="http://www.w3.org/2000/svg" viewBox="0 0 29.872 29.863">
    <path id="Path_90" data-name="Path 90" d="M8.962,29.863A1.493,1.493,0,0,1,7.469,28.37v-4.48H5.976A5.979,5.979,0,0,1,0,17.918V5.973A5.979,5.979,0,0,1,5.974,0H23.9a5.979,5.979,0,0,1,5.974,5.973V17.918A5.98,5.98,0,0,1,23.9,23.891H19.814L9.7,29.666A1.487,1.487,0,0,1,8.962,29.863ZM5.974,2.986A2.989,2.989,0,0,0,2.988,5.973V17.918A2.991,2.991,0,0,0,5.976,20.9H8.964A1.493,1.493,0,0,1,10.457,22.4v3.4l8.221-4.7a1.477,1.477,0,0,1,.739-.2H23.9a2.991,2.991,0,0,0,2.988-2.986V5.973A2.991,2.991,0,0,0,23.9,2.986Z" fill="#fff" />
  </symbol>
  <symbol id="refrence" data-name="Group 109" xmlns="http://www.w3.org/2000/svg" viewBox="0 0 31.585 28.836">
    <g id="Group_108" data-name="Group 108">
      <g id="Group_107" data-name="Group 107">
        <path id="Path_75" data-name="Path 75" d="M25.673,28.836H5.914A5.914,5.914,0,0,1,0,22.922V5.914A5.913,5.913,0,0,1,5.914,0H20.49A5.912,5.912,0,0,1,26.4,5.912v14.4A1.691,1.691,0,0,1,24.712,22h0a1.691,1.691,0,0,1-1.691-1.691V5.914A2.531,2.531,0,0,0,20.49,3.383H5.914A2.531,2.531,0,0,0,3.383,5.914V22.925a2.53,2.53,0,0,0,2.53,2.53H25.675a2.53,2.53,0,0,0,2.53-2.53V3.679a1.691,1.691,0,0,1,1.691-1.691h0a1.691,1.691,0,0,1,1.691,1.691V22.923A5.912,5.912,0,0,1,25.673,28.836Z" fill="#fff" />
      </g>
    </g>
    <path id="Path_76" data-name="Path 76" d="M15.217,8.918H5.722a1.583,1.583,0,1,1,0-3.166h9.5a1.583,1.583,0,1,1,0,3.166Z" transform="translate(2.513 3.492)" fill="#fff" />
    <path id="Path_77" data-name="Path 77" d="M15.217,12.857H5.722a1.583,1.583,0,1,1,0-3.166h9.5a1.583,1.583,0,1,1,0,3.166Z" transform="translate(2.513 5.883)" fill="#fff" />
  </symbol>
  <symbol id="support" xmlns="http://www.w3.org/2000/svg" viewBox="0 0 31.738 34.542">
    <path id="Path_78" data-name="Path 78" d="M26.837,16.632H24.279V12.793c0-5.643-4.018-10.235-8.955-10.235S6.368,7.15,6.368,12.793v3.838H3.809V12.793C3.809,5.739,8.974,0,15.323,0S26.837,5.739,26.837,12.793Z" transform="translate(1.064)" fill="#fff" />
    <path id="Path_79" data-name="Path 79" d="M5.629,22.458a5.629,5.629,0,1,1,0-11.258c1.9,0,3.081,2.157,3.081,5.629S7.53,22.458,5.629,22.458Zm-.111-8.7a3.07,3.07,0,0,0,0,6.136,5.656,5.656,0,0,0,.633-3.068A5.631,5.631,0,0,0,5.518,13.761Z" transform="translate(0 3.129)" fill="#fff" />
    <path id="Path_80" data-name="Path 80" d="M21.08,22.458c-1.9,0-3.079-2.156-3.079-5.629a10.284,10.284,0,0,1,.528-3.432c.7-1.911,1.9-2.2,2.551-2.2a5.629,5.629,0,1,1,0,11.258Zm.161-2.514h0Zm-.049-6.183a5.66,5.66,0,0,0-.633,3.068,5.656,5.656,0,0,0,.633,3.068,3.07,3.07,0,0,0,0-6.136Z" transform="translate(5.029 3.129)" fill="#fff" />
    <path id="Path_81" data-name="Path 81" d="M16.088,28.235a1.279,1.279,0,1,1,0-2.559,5.123,5.123,0,0,0,5.117-5.117V19.279a1.279,1.279,0,0,1,2.559,0v1.279A7.685,7.685,0,0,1,16.088,28.235Z" transform="translate(4.137 5.028)" fill="#fff" />
    <circle id="Ellipse_10" data-name="Ellipse 10" cx="2.559" cy="2.559" r="2.559" transform="translate(16.387 29.425)" fill="#fff" />
  </symbol>
  <symbol id="terms" xmlns="http://www.w3.org/2000/svg" viewBox="0 0 26.611 30.159">
    <path id="Path_84" data-name="Path 84" d="M19.515,30.159H7.1a7.1,7.1,0,0,1-7.1-7.1V7.1A7.1,7.1,0,0,1,7.1,0h8.87a1.769,1.769,0,0,1,1.254.52l8.87,8.87a1.78,1.78,0,0,1,.52,1.254V23.063A7.1,7.1,0,0,1,19.515,30.159ZM7.1,3.548A3.552,3.552,0,0,0,3.548,7.1V23.063A3.552,3.552,0,0,0,7.1,26.611H19.515a3.553,3.553,0,0,0,3.548-3.548V11.379L15.232,3.548Z" fill="#fff" />
    <path id="Path_85" data-name="Path 85" d="M17.644,14.192H9.915A2.918,2.918,0,0,1,7,11.278v-9.5a1.774,1.774,0,1,1,3.548,0v8.87h7.1a1.774,1.774,0,1,1,0,3.548Z" transform="translate(5.418)" fill="#fff" />
  </symbol>
  <symbol id="user" xmlns="http://www.w3.org/2000/svg" viewBox="0 0 32.835 19.359">
    <path id="Path_71" data-name="Path 71" d="M1.174,17.384a1.173,1.173,0,0,1-.626-2.165l5.027-3.167a3.353,3.353,0,0,1,3.407-.2,8.687,8.687,0,0,0,5.718-.036,3.282,3.282,0,0,1,3.3.13l4.933,3.292a1.173,1.173,0,0,1-1.3,1.951l-4.917-3.281a.913.913,0,0,0-.922-.015,10.843,10.843,0,0,1-7.826.074A1.063,1.063,0,0,0,6.877,14L1.8,17.2A1.185,1.185,0,0,1,1.174,17.384Z" transform="translate(0 1.974)" fill="#fff" />
    <path id="Path_72" data-name="Path 72" d="M10.812,11.726a5.863,5.863,0,1,1,5.863-5.863A5.87,5.87,0,0,1,10.812,11.726Zm0-9.381A3.518,3.518,0,1,0,14.33,5.863,3.522,3.522,0,0,0,10.812,2.345Z" transform="translate(0.854)" fill="#fff" />
    <path id="Path_73" data-name="Path 73" d="M28.881,13.714a1.165,1.165,0,0,1-.65-.2l-3.551-2.37a.336.336,0,0,0-.334.006,8.09,8.09,0,0,1-5.944.059.474.474,0,0,0-.456,0A1.173,1.173,0,1,1,16.592,9.3a2.762,2.762,0,0,1,2.827-.2,5.96,5.96,0,0,0,3.837-.021,2.7,2.7,0,0,1,2.711.108l3.567,2.379a1.174,1.174,0,0,1-.653,2.149Z" transform="translate(2.779 1.513)" fill="#fff" />
    <path id="Path_74" data-name="Path 74" d="M21.134,9.629a4.56,4.56,0,1,1,4.56-4.56A4.566,4.566,0,0,1,21.134,9.629Zm0-6.775a2.215,2.215,0,1,0,2.215,2.215A2.217,2.217,0,0,0,21.134,2.853Z" transform="translate(2.861 0.088)" fill="#fff" />
  </symbol>
  <symbol id="faq" xmlns="http://www.w3.org/2000/svg" viewBox="0 0 29.872 29.863">
    <path id="Path_90" data-name="Path 90" d="M8.962,29.863A1.493,1.493,0,0,1,7.469,28.37v-4.48H5.976A5.979,5.979,0,0,1,0,17.918V5.973A5.979,5.979,0,0,1,5.974,0H23.9a5.979,5.979,0,0,1,5.974,5.973V17.918A5.98,5.98,0,0,1,23.9,23.891H19.814L9.7,29.666A1.487,1.487,0,0,1,8.962,29.863ZM5.974,2.986A2.989,2.989,0,0,0,2.988,5.973V17.918A2.991,2.991,0,0,0,5.976,20.9H8.964A1.493,1.493,0,0,1,10.457,22.4v3.4l8.221-4.7a1.477,1.477,0,0,1,.739-.2H23.9a2.991,2.991,0,0,0,2.988-2.986V5.973A2.991,2.991,0,0,0,23.9,2.986Z" fill="#fff"/>
  </symbol>
  
</svg>